<svg width="64" height="64" viewBox="0 0 64 64" fill="none" xmlns="http://www.w3.org/2000/svg">
<rect width="64" height="64" rx="16" fill="url(#paint0_linear_1032_4676)"/>
<path d="M41.75 26C42.1625 26 42.5 26.3375 42.5 26.75V37.25C42.5 37.6625 42.1625 38 41.75 38H22.25C21.8375 38 21.5 37.6625 21.5 37.25V26.75C21.5 26.3375 21.8375 26 22.25 26H41.75ZM22.25 23C20.1781 23 18.5 24.6781 18.5 26.75V37.25C18.5 39.3219 20.1781 41 22.25 41H41.75C43.8219 41 45.5 39.3219 45.5 37.25V35C46.3297 35 47 34.3297 47 33.5V30.5C47 29.6703 46.3297 29 45.5 29V26.75C45.5 24.6781 43.8219 23 41.75 23H22.25ZM24.875 28.25C24.2516 28.25 23.75 28.7516 23.75 29.375V34.625C23.75 35.2484 24.2516 35.75 24.875 35.75H39.125C39.7484 35.75 40.25 35.2484 40.25 34.625V29.375C40.25 28.7516 39.7484 28.25 39.125 28.25H24.875Z" fill="#F1F1F1"/>
<defs>
<linearGradient id="paint0_linear_1032_4676" x1="0" y1="0" x2="64" y2="64" gradientUnits="userSpaceOnUse">
<stop stop-color="#16A249"/>
<stop offset="0.50904" stop-color="#13612E"/>
</linearGradient>
</defs>
</svg>
