<svg width="100" height="97" viewBox="0 0 100 97" fill="none" xmlns="http://www.w3.org/2000/svg">
<rect x="1" y="1" width="98" height="95" rx="15" stroke="#0E4121" stroke-width="2"/>
<path d="M67.544 44.812L64.808 36.602C64.4111 35.407 63.6477 34.3674 62.6262 33.631C61.6048 32.8946 60.3772 32.4989 59.118 32.5H54V28.5H46V32.5H40.882C39.6228 32.4989 38.3952 32.8946 37.3738 33.631C36.3523 34.3674 35.5889 35.407 35.192 36.602L32.456 44.812C31.7288 45.1163 31.1077 45.6287 30.6707 46.2849C30.2337 46.941 30.0004 47.7117 30 48.5V58.5C30 60.006 30.846 61.304 32.078 61.986C32.052 62.118 32 62.238 32 62.376V66.5C32 67.0304 32.2107 67.5391 32.5858 67.9142C32.9609 68.2893 33.4696 68.5 34 68.5H36C36.5304 68.5 37.0391 68.2893 37.4142 67.9142C37.7893 67.5391 38 67.0304 38 66.5V62.5H62V66.5C62 67.0304 62.2107 67.5391 62.5858 67.9142C62.9609 68.2893 63.4696 68.5 64 68.5H66C66.5304 68.5 67.0391 68.2893 67.4142 67.9142C67.7893 67.5391 68 67.0304 68 66.5V62.376C68 62.238 67.948 62.116 67.922 61.986C68.5492 61.6448 69.0731 61.1411 69.4387 60.5278C69.8043 59.9144 69.9982 59.214 70 58.5V48.5C70 46.842 68.984 45.418 67.544 44.812ZM34 58.5V48.5H66L66.004 58.5H34ZM40.882 36.5H59.116C59.978 36.5 60.742 37.048 61.014 37.868L63.226 44.5H36.774L38.984 37.868C39.1167 37.4696 39.3714 37.1231 39.7121 36.8775C40.0528 36.632 40.4621 36.4999 40.882 36.5Z" fill="#13612E"/>
<path d="M39 56.5C40.6569 56.5 42 55.1569 42 53.5C42 51.8431 40.6569 50.5 39 50.5C37.3431 50.5 36 51.8431 36 53.5C36 55.1569 37.3431 56.5 39 56.5Z" fill="#13612E"/>
<path d="M61 56.5C62.6569 56.5 64 55.1569 64 53.5C64 51.8431 62.6569 50.5 61 50.5C59.3431 50.5 58 51.8431 58 53.5C58 55.1569 59.3431 56.5 61 56.5Z" fill="#13612E"/>
</svg>
