<svg width="52" height="52" viewBox="0 0 52 52" fill="none" xmlns="http://www.w3.org/2000/svg">
<g filter="url(#filter0_d_1032_4860)">
<circle cx="26" cy="24" r="24" fill="#FAFBF0"/>
</g>
<path d="M28.2857 25.3333H36L35.1429 28H28.2857V40H24.8571V28H18V25.3333H24.8571V22.837C24.8571 20.4596 25.1755 19.5975 25.7731 18.7284C26.3707 17.8593 27.2477 17.1772 28.3651 16.7124C29.4826 16.2475 30.5909 16 33.6477 16C34.5425 16 35.3266 16.0667 36 16.2V18.6667H33.6477C31.3785 18.6667 30.6874 18.7705 29.982 19.0639C29.4621 19.2801 29.0745 19.5816 28.7964 19.986C28.4191 20.5346 28.2857 21.0721 28.2857 22.837V25.3333Z" fill="#232428"/>
<defs>
<filter id="filter0_d_1032_4860" x="0" y="0" width="52" height="52" filterUnits="userSpaceOnUse" color-interpolation-filters="sRGB">
<feFlood flood-opacity="0" result="BackgroundImageFix"/>
<feColorMatrix in="SourceAlpha" type="matrix" values="0 0 0 0 0 0 0 0 0 0 0 0 0 0 0 0 0 0 127 0" result="hardAlpha"/>
<feOffset dy="2"/>
<feGaussianBlur stdDeviation="1"/>
<feComposite in2="hardAlpha" operator="out"/>
<feColorMatrix type="matrix" values="0 0 0 0 0 0 0 0 0 0 0 0 0 0 0 0 0 0 0.16 0"/>
<feBlend mode="normal" in2="BackgroundImageFix" result="effect1_dropShadow_1032_4860"/>
<feBlend mode="normal" in="SourceGraphic" in2="effect1_dropShadow_1032_4860" result="shape"/>
</filter>
</defs>
</svg>
