<svg width="52" height="52" viewBox="0 0 52 52" fill="none" xmlns="http://www.w3.org/2000/svg">
<g filter="url(#filter0_d_1032_4864)">
<circle cx="26" cy="24" r="24" fill="#FAFBF0"/>
</g>
<path d="M23 34H29C34 34 36 32 36 27V21C36 16 34 14 29 14H23C18 14 16 16 16 21V27C16 32 18 34 23 34Z" stroke="#292D32" stroke-width="1.5" stroke-linecap="round" stroke-linejoin="round"/>
<path d="M26 27.5C27.933 27.5 29.5 25.933 29.5 24C29.5 22.067 27.933 20.5 26 20.5C24.067 20.5 22.5 22.067 22.5 24C22.5 25.933 24.067 27.5 26 27.5Z" stroke="#292D32" stroke-width="1.5" stroke-linecap="round" stroke-linejoin="round"/>
<path d="M31.6361 19H31.6477" stroke="#292D32" stroke-width="2" stroke-linecap="round" stroke-linejoin="round"/>
<defs>
<filter id="filter0_d_1032_4864" x="0" y="0" width="52" height="52" filterUnits="userSpaceOnUse" color-interpolation-filters="sRGB">
<feFlood flood-opacity="0" result="BackgroundImageFix"/>
<feColorMatrix in="SourceAlpha" type="matrix" values="0 0 0 0 0 0 0 0 0 0 0 0 0 0 0 0 0 0 127 0" result="hardAlpha"/>
<feOffset dy="2"/>
<feGaussianBlur stdDeviation="1"/>
<feComposite in2="hardAlpha" operator="out"/>
<feColorMatrix type="matrix" values="0 0 0 0 0 0 0 0 0 0 0 0 0 0 0 0 0 0 0.16 0"/>
<feBlend mode="normal" in2="BackgroundImageFix" result="effect1_dropShadow_1032_4864"/>
<feBlend mode="normal" in="SourceGraphic" in2="effect1_dropShadow_1032_4864" result="shape"/>
</filter>
</defs>
</svg>
