<svg width="64" height="64" viewBox="0 0 64 64" fill="none" xmlns="http://www.w3.org/2000/svg">
<rect width="64" height="64" rx="8" fill="url(#paint0_linear_1032_4654)"/>
<path d="M44 28.8C44 39.2 32 48 32 48C32 48 20 39.2 20 28.8C20 25.4052 21.2643 22.1495 23.5147 19.749C25.7652 17.3486 28.8174 16 32 16C35.1826 16 38.2348 17.3486 40.4853 19.749C42.7357 22.1495 44 25.4052 44 28.8Z" stroke="#F1F1F1" stroke-width="2"/>
<path d="M36.5 28.8C36.5 30.073 36.0259 31.2939 35.182 32.1941C34.3381 33.0943 33.1935 33.6 32 33.6C30.8065 33.6 29.6619 33.0943 28.818 32.1941C27.9741 31.2939 27.5 30.073 27.5 28.8C27.5 27.527 27.9741 26.3061 28.818 25.4059C29.6619 24.5057 30.8065 24 32 24C33.1935 24 34.3381 24.5057 35.182 25.4059C36.0259 26.3061 36.5 27.527 36.5 28.8Z" stroke="#F1F1F1" stroke-width="2"/>
<defs>
<linearGradient id="paint0_linear_1032_4654" x1="4.58956e-07" y1="8" x2="64" y2="64" gradientUnits="userSpaceOnUse">
<stop stop-color="#16A249"/>
<stop offset="0.50904" stop-color="#13612E"/>
</linearGradient>
</defs>
</svg>
