<svg width="100" height="97" viewBox="0 0 100 97" fill="none" xmlns="http://www.w3.org/2000/svg">
<rect x="1" y="1" width="98" height="95" rx="15" stroke="#0E4121" stroke-width="2"/>
<path d="M46.2503 39.4733H22.917V41.14C22.917 41.582 22.7414 42.0059 22.4288 42.3185C22.1163 42.631 21.6924 42.8066 21.2503 42.8066H19.5837C19.1416 42.8066 18.7177 42.631 18.4051 42.3185C18.0926 42.0059 17.917 41.582 17.917 41.14V24.4733L22.0503 14.8266C22.3075 14.2266 22.7353 13.7154 23.2804 13.3563C23.8256 12.9972 24.4642 12.8061 25.117 12.8066H44.0503C44.7026 12.8067 45.3404 12.9981 45.885 13.3572C46.4295 13.7162 46.8567 14.2272 47.1137 14.8266L51.2503 24.4733V41.14C51.2503 41.582 51.0747 42.0059 50.7622 42.3185C50.4496 42.631 50.0257 42.8066 49.5837 42.8066H47.917C47.475 42.8066 47.051 42.631 46.7385 42.3185C46.4259 42.0059 46.2503 41.582 46.2503 41.14V39.4733ZM47.917 27.8066H21.2503V36.14H47.917V27.8066ZM21.5437 24.4733H47.6237L44.052 16.14H25.117L21.5437 24.4733ZM25.417 34.4733C24.754 34.4733 24.1181 34.2099 23.6492 33.7411C23.1804 33.2722 22.917 32.6363 22.917 31.9733C22.917 31.3103 23.1804 30.6744 23.6492 30.2055C24.1181 29.7367 24.754 29.4733 25.417 29.4733C26.08 29.4733 26.7159 29.7367 27.1848 30.2055C27.6536 30.6744 27.917 31.3103 27.917 31.9733C27.917 32.6363 27.6536 33.2722 27.1848 33.7411C26.7159 34.2099 26.08 34.4733 25.417 34.4733ZM43.7503 34.4733C43.0873 34.4733 42.4514 34.2099 41.9826 33.7411C41.5137 33.2722 41.2503 32.6363 41.2503 31.9733C41.2503 31.3103 41.5137 30.6744 41.9826 30.2055C42.4514 29.7367 43.0873 29.4733 43.7503 29.4733C44.4134 29.4733 45.0492 29.7367 45.5181 30.2055C45.9869 30.6744 46.2503 31.3103 46.2503 31.9733C46.2503 32.6363 45.9869 33.2722 45.5181 33.7411C45.0492 34.2099 44.4134 34.4733 43.7503 34.4733Z" fill="#13612E"/>
<path d="M76.2493 54.0885H52.916V55.7552C52.916 56.1972 52.7404 56.6212 52.4279 56.9337C52.1153 57.2463 51.6914 57.4219 51.2493 57.4219H49.5827C49.1407 57.4219 48.7167 57.2463 48.4042 56.9337C48.0916 56.6212 47.916 56.1972 47.916 55.7552V39.0885L52.0493 29.4419C52.3066 28.8419 52.7343 28.3306 53.2794 27.9715C53.8246 27.6124 54.4632 27.4213 55.116 27.4219H74.0493C74.7016 27.4219 75.3395 27.6134 75.884 27.9724C76.4285 28.3315 76.8557 28.8424 77.1127 29.4419L81.2493 39.0885V55.7552C81.2493 56.1972 81.0738 56.6212 80.7612 56.9337C80.4486 57.2463 80.0247 57.4219 79.5827 57.4219H77.916C77.474 57.4219 77.0501 57.2463 76.7375 56.9337C76.4249 56.6212 76.2493 56.1972 76.2493 55.7552V54.0885ZM77.916 42.4219H51.2493V50.7552H77.916V42.4219ZM51.5427 39.0885H77.6227L74.051 30.7552H55.116L51.5427 39.0885ZM55.416 49.0885C54.753 49.0885 54.1171 48.8251 53.6482 48.3563C53.1794 47.8875 52.916 47.2516 52.916 46.5885C52.916 45.9255 53.1794 45.2896 53.6482 44.8208C54.1171 44.3519 54.753 44.0885 55.416 44.0885C56.0791 44.0885 56.7149 44.3519 57.1838 44.8208C57.6526 45.2896 57.916 45.9255 57.916 46.5885C57.916 47.2516 57.6526 47.8875 57.1838 48.3563C56.7149 48.8251 56.0791 49.0885 55.416 49.0885ZM73.7493 49.0885C73.0863 49.0885 72.4504 48.8251 71.9816 48.3563C71.5127 47.8875 71.2493 47.2516 71.2493 46.5885C71.2493 45.9255 71.5127 45.2896 71.9816 44.8208C72.4504 44.3519 73.0863 44.0885 73.7493 44.0885C74.4124 44.0885 75.0483 44.3519 75.5171 44.8208C75.986 45.2896 76.2493 45.9255 76.2493 46.5885C76.2493 47.2516 75.986 47.8875 75.5171 48.3563C75.0483 48.8251 74.4124 49.0885 73.7493 49.0885Z" fill="#13612E"/>
<path d="M61.1663 84.1921H37.833V85.8587C37.833 86.3008 37.6574 86.7247 37.3449 87.0372C37.0323 87.3498 36.6084 87.5254 36.1663 87.5254H34.4997C34.0576 87.5254 33.6337 87.3498 33.3212 87.0372C33.0086 86.7247 32.833 86.3008 32.833 85.8587V69.1921L36.9663 59.5454C37.2235 58.9454 37.6513 58.4341 38.1964 58.075C38.7416 57.7159 39.3802 57.5248 40.033 57.5254H58.9663C59.6186 57.5255 60.2565 57.7169 60.801 58.0759C61.3455 58.435 61.7727 58.9459 62.0297 59.5454L66.1663 69.1921V85.8587C66.1663 86.3008 65.9907 86.7247 65.6782 87.0372C65.3656 87.3498 64.9417 87.5254 64.4997 87.5254H62.833C62.391 87.5254 61.9671 87.3498 61.6545 87.0372C61.3419 86.7247 61.1663 86.3008 61.1663 85.8587V84.1921ZM62.833 72.5254H36.1663V80.8587H62.833V72.5254ZM36.4597 69.1921H62.5397L58.968 60.8587H40.033L36.4597 69.1921ZM40.333 79.1921C39.67 79.1921 39.0341 78.9287 38.5652 78.4598C38.0964 77.991 37.833 77.3551 37.833 76.6921C37.833 76.029 38.0964 75.3931 38.5652 74.9243C39.0341 74.4555 39.67 74.1921 40.333 74.1921C40.996 74.1921 41.6319 74.4555 42.1008 74.9243C42.5696 75.3931 42.833 76.029 42.833 76.6921C42.833 77.3551 42.5696 77.991 42.1008 78.4598C41.6319 78.9287 40.996 79.1921 40.333 79.1921ZM58.6663 79.1921C58.0033 79.1921 57.3674 78.9287 56.8986 78.4598C56.4297 77.991 56.1663 77.3551 56.1663 76.6921C56.1663 76.029 56.4297 75.3931 56.8986 74.9243C57.3674 74.4555 58.0033 74.1921 58.6663 74.1921C59.3294 74.1921 59.9653 74.4555 60.4341 74.9243C60.9029 75.3931 61.1663 76.029 61.1663 76.6921C61.1663 77.3551 60.9029 77.991 60.4341 78.4598C59.9653 78.9287 59.3294 79.1921 58.6663 79.1921Z" fill="#13612E"/>
</svg>
