<svg width="64" height="64" viewBox="0 0 64 64" fill="none" xmlns="http://www.w3.org/2000/svg">
<rect width="64" height="64" rx="8" fill="url(#paint0_linear_1032_4707)"/>
<path d="M28.4444 44.9524H35.5556C35.5556 46.6286 33.9556 48 32 48C30.0444 48 28.4444 46.6286 28.4444 44.9524ZM48 41.9048V43.4286H16V41.9048L19.5556 38.8571V29.7143C19.5556 24.9905 23.1111 20.8762 28.4444 19.5048V19.0476C28.4444 17.3714 30.0444 16 32 16C33.9556 16 35.5556 17.3714 35.5556 19.0476V19.5048C40.8889 20.8762 44.4444 24.9905 44.4444 29.7143V38.8571L48 41.9048ZM40.8889 29.7143C40.8889 25.4476 36.9778 22.0952 32 22.0952C27.0222 22.0952 23.1111 25.4476 23.1111 29.7143V40.381H40.8889V29.7143Z" fill="#F1F1F1"/>
<defs>
<linearGradient id="paint0_linear_1032_4707" x1="-5" y1="1.54553e-07" x2="64" y2="64" gradientUnits="userSpaceOnUse">
<stop stop-color="#16A249"/>
<stop offset="0.50904" stop-color="#13612E"/>
</linearGradient>
</defs>
</svg>
