<svg width="100" height="97" viewBox="0 0 100 97" fill="none" xmlns="http://www.w3.org/2000/svg">
<rect x="1" y="1" width="98" height="95" rx="15" stroke="#0E4121" stroke-width="2"/>
<path d="M64 64.5H36V66.5C36 67.0304 35.7893 67.5391 35.4142 67.9142C35.0391 68.2893 34.5304 68.5 34 68.5H32C31.4696 68.5 30.9609 68.2893 30.5858 67.9142C30.2107 67.5391 30 67.0304 30 66.5V46.5L34.96 34.924C35.2686 34.204 35.7819 33.5905 36.4361 33.1596C37.0903 32.7286 37.8566 32.4993 38.64 32.5H61.36C62.1427 32.5001 62.9081 32.7298 63.5616 33.1607C64.215 33.5915 64.7276 34.2046 65.036 34.924L70 46.5V66.5C70 67.0304 69.7893 67.5391 69.4142 67.9142C69.0391 68.2893 68.5304 68.5 68 68.5H66C65.4696 68.5 64.9609 68.2893 64.5858 67.9142C64.2107 67.5391 64 67.0304 64 66.5V64.5ZM66 50.5H34V60.5H66V50.5ZM34.352 46.5H65.648L61.362 36.5H38.64L34.352 46.5ZM39 58.5C38.2044 58.5 37.4413 58.1839 36.8787 57.6213C36.3161 57.0587 36 56.2957 36 55.5C36 54.7044 36.3161 53.9413 36.8787 53.3787C37.4413 52.8161 38.2044 52.5 39 52.5C39.7956 52.5 40.5587 52.8161 41.1213 53.3787C41.6839 53.9413 42 54.7044 42 55.5C42 56.2957 41.6839 57.0587 41.1213 57.6213C40.5587 58.1839 39.7956 58.5 39 58.5ZM61 58.5C60.2044 58.5 59.4413 58.1839 58.8787 57.6213C58.3161 57.0587 58 56.2957 58 55.5C58 54.7044 58.3161 53.9413 58.8787 53.3787C59.4413 52.8161 60.2044 52.5 61 52.5C61.7956 52.5 62.5587 52.8161 63.1213 53.3787C63.6839 53.9413 64 54.7044 64 55.5C64 56.2957 63.6839 57.0587 63.1213 57.6213C62.5587 58.1839 61.7956 58.5 61 58.5Z" fill="#13612E"/>
</svg>
