<svg width="64" height="64" viewBox="0 0 64 64" fill="none" xmlns="http://www.w3.org/2000/svg">
<rect width="64" height="64" rx="16" fill="url(#paint0_linear_1032_4666)"/>
<path d="M32.0003 42.666C34.8293 42.666 37.5424 41.5422 39.5428 39.5418C41.5432 37.5414 42.667 34.8283 42.667 31.9993C42.667 29.1704 41.5432 26.4573 39.5428 24.4569C37.5424 22.4565 34.8293 21.3327 32.0003 21.3327C29.1713 21.3327 26.4582 22.4565 24.4579 24.4569C22.4575 26.4573 21.3337 29.1704 21.3337 31.9993C21.3337 34.8283 22.4575 37.5414 24.4579 39.5418C26.4582 41.5422 29.1713 42.666 32.0003 42.666ZM32.0003 18.666C33.7513 18.666 35.4851 19.0109 37.1028 19.681C38.7204 20.351 40.1903 21.3331 41.4284 22.5713C42.6665 23.8094 43.6487 25.2792 44.3187 26.8969C44.9888 28.5146 45.3337 30.2484 45.3337 31.9993C45.3337 35.5356 43.9289 38.927 41.4284 41.4274C38.9279 43.9279 35.5365 45.3327 32.0003 45.3327C24.627 45.3327 18.667 39.3327 18.667 31.9993C18.667 28.4631 20.0718 25.0717 22.5722 22.5713C25.0727 20.0708 28.4641 18.666 32.0003 18.666ZM32.667 25.3327V32.3327L38.667 35.8927L37.667 37.5327L30.667 33.3327V25.3327H32.667Z" fill="#F1F1F1"/>
<defs>
<linearGradient id="paint0_linear_1032_4666" x1="5" y1="7.5" x2="64" y2="64.5" gradientUnits="userSpaceOnUse">
<stop stop-color="#16A249"/>
<stop offset="0.50904" stop-color="#13612E"/>
</linearGradient>
</defs>
</svg>
